HIERARCHY
ROOT Hips
{
	OFFSET	0.00	0.00	0.00
	CHANNELS 6 Xposition Yposition Zposition Zrotation Xrotation Yrotation
	JOINT LeftUpperLeg
	{
		OFFSET	 0.100000	-0.066564	-0.000554
		CHANNELS 3 Zrotation Xrotation Yrotation
		JOINT LeftLowerLeg
		{
			OFFSET	 0.002447	-0.463436	-0.005172
			CHANNELS 3 Zrotation Xrotation Yrotation
			JOINT LeftFoot
			{
				OFFSET	-0.002447	-0.420480	-0.020576
				CHANNELS 3 Zrotation Xrotation Yrotation
				JOINT LeftToes
				{
					OFFSET	 0.003734	-0.104922	 0.126407
					CHANNELS 3 Zrotation Xrotation Yrotation
					End Site
					{
						OFFSET	 0.000000	 0.000000	 0.059955
					}
				}
			}
		}
	}
	JOINT RightUpperLeg
	{
		OFFSET	-0.100000	-0.066564	-0.000554
		CHANNELS 3 Zrotation Xrotation Yrotation
		JOINT RightLowerLeg
		{
			OFFSET	-0.002447	-0.463436	-0.005146
			CHANNELS 3 Zrotation Xrotation Yrotation
			JOINT RightFoot
			{
				OFFSET	 0.002447	-0.420479	-0.020602
				CHANNELS 3 Zrotation Xrotation Yrotation
				JOINT RightToes
				{
					OFFSET	-0.003734	-0.104922	 0.126407
					CHANNELS 3 Zrotation Xrotation Yrotation
					End Site
					{
						OFFSET	-0.000000	 0.000000	 0.059955
					}
				}
			}
		}
	}
	JOINT Spine
	{
		OFFSET	 0.000000	 0.099235	-0.012273
		CHANNELS 3 Zrotation Xrotation Yrotation
		JOINT Chest
		{
			OFFSET	-0.000001	 0.116455	-0.014223
			CHANNELS 3 Zrotation Xrotation Yrotation
			JOINT UpperChest
			{
				OFFSET	 0.000001	 0.133602	-0.016265
				CHANNELS 3 Zrotation Xrotation Yrotation
				JOINT LeftShoulder
				{
					OFFSET	 0.061058	 0.091105	 0.007056
					CHANNELS 3 Zrotation Xrotation Yrotation
					JOINT LeftUpperArm
					{
						OFFSET	 0.133942	-0.002659	-0.026009
						CHANNELS 3 Zrotation Xrotation Yrotation
						JOINT LeftLowerArm
						{
							OFFSET	 0.274047	 0.000000	 0.000000
							CHANNELS 3 Zrotation Xrotation Yrotation
							JOINT LeftHand
							{
								OFFSET	 0.276145	 0.000000	 0.000000
								CHANNELS 3 Zrotation Xrotation Yrotation
								End Site
								{
									OFFSET	 0.165687	 0.000000	 0.000000
								}
							}
						}
					}
				}
				JOINT Neck
				{
					OFFSET	 0.000000	 0.150325	 0.007929
					CHANNELS 3 Zrotation Xrotation Yrotation
					JOINT Head
					{
						OFFSET	 0.000000	 0.103218	 0.031424
						CHANNELS 3 Zrotation Xrotation Yrotation
						End Site
						{
							OFFSET	 0.000000	 0.061931	 0.018855
						}
					}
				}
				JOINT RightShoulder
				{
					OFFSET	-0.061057	 0.091105	 0.007056
					CHANNELS 3 Zrotation Xrotation Yrotation
					JOINT RightUpperArm
					{
						OFFSET	-0.133943	-0.002660	-0.026009
						CHANNELS 3 Zrotation Xrotation Yrotation
						JOINT RightLowerArm
						{
							OFFSET	-0.274047	 0.000000	 0.000000
							CHANNELS 3 Zrotation Xrotation Yrotation
							JOINT RightHand
							{
								OFFSET	-0.276145	 0.000000	 0.000000
								CHANNELS 3 Zrotation Xrotation Yrotation
								End Site
								{
									OFFSET	-0.165687	 0.000000	 0.000000
								}
							}
						}
					}
				}
			}
		}
	}
}
MOTION
Frames:    11
Frame Time: 0.03333334
-0.034280	 1.039450	-0.558870	 0.035415	 0.063944	-75.998330	 14.638900	 2.160077	 8.685725	 0.000253	 0.092491	 0.000330	-15.535470	-1.079613	 5.456315	 0.000420	 0.974587	 0.000125	-3.610306	 1.609351	-29.496050	 0.115145	 17.332830	-0.005893	 2.542069	-17.933110	-12.951600	-0.000282	 1.299193	-0.001043	 0.014540	-0.893319	-1.407153	-0.000000	 0.000000	 0.000000	 0.005521	-1.787226	-2.818350	-0.646046	 4.916267	 29.101570	-74.444140	-0.048515	-27.233340	-22.209730	 12.357890	-42.624100	 17.838040	 13.802330	-9.775876	 2.085558	 5.642732	-0.209546	 2.179554	 5.550865	-0.074043	 1.166113	 3.103253	-28.316000	 80.596610	 18.422220	 9.342393	 8.851681	-6.886943	 33.249980	-26.113930	 6.934943	-15.967550
-0.036090	 1.039210	-0.556150	-0.166575	-0.026905	-77.154480	 14.409450	 2.927038	 9.118537	 0.000532	 0.078164	-0.000023	-15.383780	-1.508194	 5.915714	-0.000154	 0.977502	 0.000198	-3.924495	 1.804481	-28.880040	 0.094824	 17.414450	-0.003626	 2.933009	-17.937980	-12.300030	 0.000751	 1.296543	 0.000512	-0.069123	-0.777080	-1.510772	-0.000000	 0.000000	 0.000000	-0.159900	-1.555178	-3.027002	-0.864777	 5.133189	 28.927490	-74.772150	-0.274751	-27.729470	-20.764420	 10.446590	-41.775290	 18.507060	 13.633370	-10.184620	 2.071141	 5.754851	 0.303533	 2.226664	 5.539194	 0.517768	 1.121596	 3.073200	-28.455400	 80.647780	 18.484130	 9.427508	 9.084131	-5.443551	 34.941560	-26.825450	 8.057904	-15.297100
-0.037710	 1.038940	-0.553600	-0.425519	-0.098155	-77.876020	 14.224100	 3.559681	 9.318714	-0.000006	 0.082846	-0.000550	-15.162590	-1.773893	 6.250008	-0.000012	 0.927749	-0.000811	-4.162326	 2.067459	-28.373130	 0.093309	 17.511710	-0.003536	 3.196214	-17.943860	-12.003960	 0.000672	 1.266368	 0.001257	-0.172152	-0.632986	-1.606477	-0.000000	 0.000000	 0.000000	-0.363993	-1.263170	-3.221141	-0.933210	 5.239651	 28.850910	-74.834950	-0.204547	-28.192650	-19.604820	 8.630146	-41.001320	 18.726800	 13.746510	-10.345100	 2.122301	 5.779526	 0.647770	 2.323120	 5.506692	 0.848166	 1.157971	 2.971080	-28.463200	 80.599950	 18.563980	 9.607729	 9.348045	-4.289452	 35.962080	-27.418460	 8.638050	-14.643680
-0.040320	 1.038300	-0.549030	-0.689071	-0.013357	-78.878340	 14.051150	 4.346062	 9.558216	 0.000044	 0.092133	-0.000444	-14.804510	-2.231419	 6.713919	 0.000935	 0.883544	-0.000065	-4.381229	 2.337543	-27.614290	 0.079142	 17.612780	-0.001372	 3.555426	-17.934550	-11.726570	-0.000946	 1.236626	 0.001093	-0.241879	-0.516990	-1.605827	-0.000000	 0.000000	 0.000000	-0.498464	-1.027876	-3.218635	-1.037147	 5.335073	 28.725680	-74.815690	-0.019535	-28.543610	-17.972780	 6.206522	-39.785390	 19.143860	 14.342140	-11.363440	 2.512515	 5.340737	 1.089800	 2.661082	 5.112893	 1.094542	 1.371332	 2.622577	-28.292660	 81.555480	 20.011430	 9.797668	 9.274570	-2.955689	 37.697160	-26.148720	 9.578994	-13.021310
-0.042570	 1.037660	-0.543910	-0.913846	-0.035663	-79.334110	 13.761960	 4.930910	 9.541237	 0.000344	 0.082635	-0.000217	-14.544850	-2.625913	 7.025582	-0.000273	 0.891468	-0.000550	-4.718709	 2.666652	-27.208570	 0.086431	 17.693560	-0.002125	 3.944637	-17.984440	-11.560410	 0.000356	 1.245953	 0.000593	-0.314413	-0.400598	-1.681519	-0.000000	 0.000000	 0.000000	-0.642624	-0.794214	-3.369805	-1.198000	 5.376352	 28.467610	-74.894910	-0.141539	-28.999060	-16.720060	 4.863176	-38.241180	 19.698120	 14.683350	-12.492990	 2.689198	 5.119690	 1.042203	 2.832304	 4.901224	 1.201627	 1.305315	 2.592101	-28.461220	 81.574120	 20.099930	 9.905089	 9.500595	-2.003333	 39.011650	-26.189870	 10.321610	-12.613760
-0.044990	 1.036920	-0.538430	-1.070103	 0.066878	-79.765160	 13.541130	 5.413663	 9.520274	 0.000177	 0.082680	 0.000181	-14.024430	-2.894454	 7.348620	 0.000087	 0.792660	-0.000955	-4.946882	 2.912099	-26.682660	 0.105183	 17.761080	-0.004789	 4.249568	-18.023420	-11.561640	 0.000185	 1.254318	 0.000184	-0.366372	-0.311301	-1.717700	-0.000000	 0.000000	 0.000000	-0.740859	-0.612676	-3.442795	-1.245419	 5.376554	 28.457690	-74.957930	 0.150211	-29.274710	-15.163280	 3.460063	-36.685920	 20.170410	 15.151550	-13.457520	 2.889232	 4.978487	 1.104409	 2.991464	 4.808580	 1.186349	 1.493385	 2.509407	-28.264690	 81.341370	 19.972440	 10.080720	 10.281220	-0.336135	 40.469590	-27.226080	 10.841850	-12.395510
-0.047460	 1.036330	-0.534640	-1.299389	 0.071094	-80.083690	 13.373320	 5.951740	 9.319031	 0.000265	 0.091969	 0.000303	-13.986570	-3.440197	 7.717774	 0.000114	 0.932596	-0.000090	-5.127062	 3.242490	-26.244530	 0.087658	 17.814340	-0.003084	 4.454297	-18.079210	-11.596470	-0.000383	 1.242353	 0.000579	-0.460036	-0.207646	-1.772068	-0.000000	 0.000000	 0.000000	-0.926115	-0.401347	-3.552889	-1.373749	 5.450914	 28.428630	-74.826640	 0.968652	-29.435810	-13.322170	 1.697220	-34.897240	 20.339390	 16.310590	-14.118590	 2.991744	 4.959993	 1.021617	 3.179433	 4.766577	 1.141818	 1.411784	 2.605088	-28.239310	 81.202700	 20.035050	 10.304280	 12.744890	 3.532187	 42.452560	-30.892020	 11.079020	-13.264770
-0.051030	 1.035530	-0.530390	-1.518510	 0.073597	-80.481030	 13.307610	 5.895047	 9.564938	 0.009932	 1.521356	-0.000813	-14.243140	-4.813161	 7.504022	 0.000454	 1.175816	-0.000365	-5.289085	 3.578863	-25.226000	 0.133856	 17.892530	-0.010137	 4.363287	-18.167380	-12.219590	-0.000066	 1.206408	 0.000285	-0.646569	-0.140445	-1.832197	-0.000000	 0.000000	 0.000000	-1.300651	-0.260389	-3.672077	-1.699973	 5.569294	 28.108680	-74.152200	 2.216106	-29.561800	-10.686460	-1.165236	-31.579620	 21.109000	 19.491030	-13.712610	 3.195529	 5.079756	 0.749266	 3.567277	 4.969556	 0.874300	 1.431927	 2.756425	-28.109450	 81.068780	 20.259060	 10.665260	 14.065990	 5.791613	 44.036800	-32.421200	 11.619400	-13.803790
-0.053750	 1.035040	-0.527560	-1.664388	 0.111073	-80.650920	 13.434120	 5.088807	 9.525404	 0.026630	 4.005830	-0.004851	-14.495480	-6.550231	 7.231099	 0.000109	 1.372499	 0.000025	-5.337050	 3.846937	-24.655200	 0.166147	 17.903930	-0.015510	 4.133658	-18.200170	-12.720320	-0.000508	 1.187557	 0.000051	-0.760513	-0.139844	-1.859893	-0.000000	 0.000000	 0.000000	-1.526320	-0.254858	-3.728027	-1.697812	 5.548687	 27.715250	-73.532010	 3.627437	-29.338700	-8.774461	-3.509365	-28.416640	 22.683300	 22.353600	-10.286770	 3.520259	 5.167071	 0.615322	 3.741445	 5.180974	 0.670291	 1.647925	 2.858826	-28.058100	 81.120640	 20.418090	 10.802470	 14.628980	 6.740439	 44.912360	-31.676450	 11.891330	-13.459490
-0.056670	 1.034370	-0.523870	-1.642908	 0.185737	-80.631970	 13.558350	 3.601095	 9.195964	 0.058085	 7.411074	-0.010683	-14.372570	-8.605984	 6.987570	-0.000066	 1.446703	 0.000576	-5.470549	 4.032373	-24.767260	 0.165564	 17.904680	-0.015202	 4.066217	-18.182490	-12.696240	-0.000913	 1.152738	-0.000057	-0.890683	-0.153382	-1.945519	-0.000000	 0.000000	 0.000000	-1.790290	-0.278745	-3.898958	-2.368841	 6.113701	 26.520930	-73.421770	 4.935210	-28.869950	-6.583556	-5.183788	-22.492360	 25.234650	 24.178390	-0.981290	 3.558341	 5.357817	 0.309711	 3.804613	 5.410162	 0.477945	 1.534805	 2.902693	-28.366060	 81.269840	 20.234550	 10.457420	 15.055630	 8.192087	 46.381610	-30.368100	 12.151490	-13.105170
-0.060830	 1.032790	-0.517300	-0.651754	 0.618312	-81.280490	 13.676730	 1.250041	 9.331293	 0.105811	 11.238450	-0.023372	-14.208040	-11.181240	 7.046795	-0.000108	 1.516646	-0.000362	-5.804589	 3.225846	-25.258240	 0.181058	 18.025900	-0.018406	 4.655289	-18.201480	-11.510880	-0.000126	 1.135950	-0.000010	-0.910539	-0.549592	-1.794307	-0.000000	 0.000000	 0.000000	-1.841492	-1.071284	-3.603335	-2.930456	 6.581174	 26.612750	-75.079060	 4.041950	-27.765150	-2.255038	-4.417281	-12.801720	 27.022570	 30.774770	 1.710122	 3.276773	 5.540536	 0.582659	 3.243180	 6.028591	 0.282659	 1.050749	 2.670642	-28.613090	 81.919450	 20.569570	 10.664720	 15.889980	 9.955799	 48.106650	-29.542350	 12.542480	-13.114410
